<?xml version="1.0" encoding="iso-8859-1"?>
<!-- Generator: Adobe Illustrator 16.0.0, SVG Export Plug-In . SVG Version: 6.00 Build 0)  -->
<!DOCTYPE svg PUBLIC "-//W3C//DTD SVG 1.1//EN" "http://www.w3.org/Graphics/SVG/1.1/DTD/svg11.dtd">
<svg version="1.1" id="Capa_1" xmlns="http://www.w3.org/2000/svg" xmlns:xlink="http://www.w3.org/1999/xlink" x="0px" y="0px"
	 width="571.106px" height="571.107px" viewBox="0 0 571.106 571.107" style="enable-background:new 0 0 571.106 571.107;"
	 xml:space="preserve">
<g>
	<path d="M181.887,364.903c0.9,0.101,1.7,0.101,2.6,0.101c27.6,0,79.5-26.5,109.4-99.4c9.5-23.2,10.101-41.3,1.7-53.8
		c-5.4-8.1-14.2-13.3-25.8-15.5c9.5-5.8,20-10.3,24.8-12.1c9.2-2.7,15.7-1.8,20.1,3.1c8.7,9.8,8.101,32.5,7.101,40.4
		c-0.5,4.1,1.899,8.1,5.8,9.6s8.3,0.2,10.7-3.2c17.1-23.9,14-53.8,13.899-54.9c-3.8-42.8-28.899-49.2-43.5-49.2
		c-16.199,0-36.2,7.3-59.5,21.6c-19.2,11.8-74.5,62-73.7,110.8c0.4,22.9,13.4,36.3,35.7,36.8c-9.2,7.899-18.3,11.199-28.1,9.6
		c-22.5-3.8-17.1-38.3-16.9-39.7c0.8-4.6-2-9-6.4-10.3c-4.5-1.3-9.2,0.9-11,5.1c-13,29.9-13.3,58.8-0.9,79.2
		C156.187,356.003,168.487,364.003,181.887,364.903z"/>
	<path d="M519.087,66.403c-21.9-19.5-49.5-29.3-81.9-29.3c-85.8,0-177.2,68.8-181,71.7c-3.9,3-4.8,8.8-1.9,12.8
		c2.9,4,8.4,5.6,12.5,2.8l3-1c24.899-16,56.3-26.6,86.3-22.3c12.3,1.8,24.7,7.8,31.1,18.5c6.301,10.4,6.2,23.3,5,35.4
		c-6.699,67.7-41.899,129.5-90.399,176.3c-30.4,29.3-72.9,61.9-116.9,64.8c-20.5,1.3-35.4-3.399-45.3-13.899
		c-14.9-15.801-13.6-40.101-13.6-40.301c0.2-3.8-1.9-7.399-5.4-8.899c-3.4-1.601-7.5-0.9-10.2,1.899c-16.5,16.5-20.3,49.2-20.6,73.5
		c-48-86.1,34-222.3,34.9-223.8c2.1-3.5,1.7-8-1.1-11s-7.2-3.8-10.9-1.9c-58.8,30.2-100.1,143.4-101.8,148.3
		c-19.3,55.8-12.6,116.5,17.4,158.6c25.5,35.7,65.8,55.4,113.5,55.4c44.1,0,93.7-16.101,147.399-47.8
		c167.601-98.9,205.301-247.101,213.801-307.5c41.5,83.8-28.2,203.1-29,204.3c-2.301,3.8-1.5,8.8,1.899,11.6c3.4,2.9,8.4,2.9,11.8,0
		c47.4-40,82.4-122.1,83.4-195.4C571.787,143.303,553.887,97.403,519.087,66.403z"/>
</g>
<g>
</g>
<g>
</g>
<g>
</g>
<g>
</g>
<g>
</g>
<g>
</g>
<g>
</g>
<g>
</g>
<g>
</g>
<g>
</g>
<g>
</g>
<g>
</g>
<g>
</g>
<g>
</g>
<g>
</g>
</svg>
